<?xml version="1.0" encoding="utf-8"?>
<!-- Generator: Adobe Illustrator 28.0.0, SVG Export Plug-In . SVG Version: 6.00 Build 0)  -->
<svg version="1.1" id="Layer_1" xmlns="http://www.w3.org/2000/svg" xmlns:xlink="http://www.w3.org/1999/xlink" x="0px" y="0px"
	 viewBox="0 0 709.4 177.4" style="enable-background:new 0 0 709.4 177.4;" xml:space="preserve">
<style type="text/css">
	.st0{fill:#FFFFFF;}
	.st1{fill:#2B2B28;}
	.st2{fill:#D8D8D5;}
	.st3{fill:#00B08A;}
	.st4{fill:#333333;}
</style>
<g>
	<path class="st0" d="M342.8,120.4L342.8,120.4c0-29.3-23.8-53.2-53.1-53.2s-53.1,23.8-53.1,53.1s23.8,53.1,53.1,53.1
		c14.4,0,27.6-5.8,37.1-15.2v15h16V120.4L342.8,120.4z M289.7,157.7c-20.6,0-37.4-16.8-37.4-37.4s16.8-37.4,37.4-37.4
		s37.4,16.8,37.4,37.4S310.4,157.7,289.7,157.7z"/>
	<path class="st0" d="M403.4,67.9c-14.4,0-27.5,5.8-37.1,15.1V10.9h-16v107.8c0,0.8-0.1,1.5-0.1,2.3c0,29.2,23.8,53.1,53.1,53.1
		c29.2,0,53.1-23.8,53.1-53.1S432.7,67.9,403.4,67.9z M403.4,158.3c-20.6,0-37.4-16.8-37.4-37.4s16.8-37.4,37.4-37.4
		s37.4,16.8,37.4,37.4C440.8,141.6,424.1,158.3,403.4,158.3z"/>
	<g>
		<path class="st0" d="M534.5,173.8c-39.9,0-72.4-32.5-72.4-72.4S494.6,29,534.5,29s72.4,32.5,72.4,72.4S574.5,173.8,534.5,173.8z
			 M534.5,47.1c-30,0-54.3,24.4-54.3,54.3s24.4,54.3,54.3,54.3c30,0,54.3-24.4,54.3-54.3S564.5,47.1,534.5,47.1z"/>
	</g>
	<g>
		<path class="st0" d="M657.3,174.1c-30.9,0-44.1-23.3-44.7-24.3l15.8-8.8v-0.1c0.4,0.6,8.9,15,28.9,15c26.4,0,27.7-16.9,27.7-20.3
			c0-7,0-18.8-29.7-25.5c-38.1-8.6-43.8-29.2-43.8-40.7c0-3.8,0.7-13.5,6.7-22.7c5.4-8.3,16.6-18.2,39.1-18.2
			c34,0,44.6,24.1,45.1,25.1l-16.7,7.1l0.1,0.1c-0.3-0.6-6.8-14.2-28.5-14.2c-25,0-27.7,15.9-27.7,22.8c0,1.7,0,5.3,3,9.3
			c4.4,6,13.6,10.7,26.7,13.7c18.2,4.1,30.5,10.9,37.5,20.6c6.4,8.9,6.4,17.8,6.4,22.5c0,2.5-0.5,11.6-6.3,20.5
			C691.4,164.3,680.2,174.1,657.3,174.1z"/>
	</g>
	<rect x="211.9" y="10.5" class="st0" width="16" height="162.4"/>
	<g>
		<path class="st0" d="M97.4,48.1c2.2-3.1,4.2-6.3,6.4-9.3c7.5-9.7,16.6-17.2,28.2-21.6c5.9-2.2,11.9-3.5,18.2-3.7
			c16.4-0.5,31.7,3.6,45.6,12.4c2,1.3,3.7,2.9,5.5,4.4c0.3,0.2,0.5,0.7,0.5,1c0,8.4,0,16.7,0,25.1c0,0.1,0,0.1-0.1,0.3
			c-0.2-0.4-0.4-0.6-0.6-0.9c-4.6-7.6-10.5-14.1-18.2-18.8c-6.2-3.7-12.9-6-20-7.2c-5.2-0.8-10.4-1.2-15.6-0.5
			c-6.6,0.8-12.8,3-18.4,6.8c-9.9,6.6-16.7,15.8-21.2,26.8c-0.8,2.1-1.7,4.2-2.5,6.4c-0.5-0.3-0.9-0.5-1.3-0.7
			c-3.4-1.8-6.5-3.9-10.2-5.1c-8-2.7-15.9-2.8-23.6,1.2c-5.7,3-10.1,7.5-13.6,12.9c-2.6,4-4.5,8.4-5.5,13.1
			c-0.2,0.9-0.6,1.2-1.4,1.3c-4.7,0.6-9.1,2.2-13.2,4.7c-8,5-12.9,12.2-14.8,21.3c-1,4.7-1.4,9.4-0.9,14.1c0.8,7.1,3.9,13,9.4,17.6
			c4.1,3.5,8.9,5.6,14,7c0.4,0.1,0.9,0.1,1.4,0.1c51.7,0,103.4,0,155.1,0c0.4,0,0.9,0,1.3,0c0,5.3,0,10.5,0,15.8c-0.3,0-0.7,0-1.1,0
			c-52.5,0-105,0-157.5,0c-3.2,0-6.2-1.1-9.1-2.2c-9.9-3.9-18-10-23.6-19.1c-3.3-5.5-5.2-11.4-5.7-17.8c-0.8-10.4,0.5-20.4,5-29.9
			C15.5,91.7,25,83.6,37.4,79c0.7-0.2,1.1-0.6,1.3-1.2c4.7-10.6,11.6-19.2,21.4-25.4c7.7-4.8,16.1-6.9,25.1-6.4
			c2.1,0.1,4.1,0.4,6.2,0.7C93.5,47.1,95.5,47.7,97.4,48.1z"/>
	</g>
</g>
</svg>
